<?xml version="1.0" encoding="iso-8859-1"?>
<!-- Generator: Adobe Illustrator 16.0.0, SVG Export Plug-In . SVG Version: 6.00 Build 0)  -->
<!DOCTYPE svg PUBLIC "-//W3C//DTD SVG 1.1//EN" "http://www.w3.org/Graphics/SVG/1.1/DTD/svg11.dtd">
<svg xmlns="http://www.w3.org/2000/svg" xmlns:xlink="http://www.w3.org/1999/xlink" version="1.1" id="Capa_1" x="0px" y="0px" width="512px" height="512px" viewBox="0 0 611.991 611.99" style="enable-background:new 0 0 611.991 611.99;" xml:space="preserve">
<g>
	<path d="M605.042,197.688L414.315,6.999c-9.281-9.281-24.319-9.281-33.582,0L310.124,77.59L45.801,341.95l-0.096,0.038v0.097   l-5.103,5.103c-3.62,3.582-5.95,8.203-6.682,13.268L0.262,584.686C-0.855,592.1,1.648,599.628,6.943,605   c4.544,4.448,10.571,6.952,16.791,6.952c1.213,0,2.33-0.097,3.524-0.289l224.327-33.543c5.007-0.79,9.744-3.101,13.268-6.721   l269.616-269.559l70.592-70.61C614.303,221.987,614.303,206.968,605.042,197.688z M253.242,515.886l-31.444-31.483l230.817-230.816   l31.463,31.502L253.242,515.886z M62.13,492.471l13.075-87.401l131.747,131.747l-87.401,13.036L62.13,492.471z M419.033,220.004   L188.215,450.821l-26.996-26.958l230.817-230.816l13.44,13.498L419.033,220.004z M326.895,127.963l31.56,31.502L127.618,390.281   l-31.541-31.502L326.895,127.963z M517.66,251.487l-48.255-48.235v-0.039h-0.096l-30.231-30.25l-78.582-78.582l37.028-37.009   l157.145,157.105L517.66,251.487z" fill="#FFDA44"/>
</g>
<g>
</g>
<g>
</g>
<g>
</g>
<g>
</g>
<g>
</g>
<g>
</g>
<g>
</g>
<g>
</g>
<g>
</g>
<g>
</g>
<g>
</g>
<g>
</g>
<g>
</g>
<g>
</g>
<g>
</g>
</svg>
